<?xml version="1.0" standalone="no"?>
<!DOCTYPE svg PUBLIC "-//W3C//DTD SVG 20010904//EN"
 "http://www.w3.org/TR/2001/REC-SVG-20010904/DTD/svg10.dtd">
<svg version="1.0" xmlns="http://www.w3.org/2000/svg"
 width="128.000000pt" height="128.000000pt" viewBox="0 0 128.000000 128.000000"
 preserveAspectRatio="xMidYMid meet">
<metadata>
Created by potrace 1.14, written by Peter Selinger 2001-2017
</metadata>
<g transform="translate(0.000000,128.000000) scale(0.100000,-0.100000)"
fill="#000000" stroke="none">
<path d="M560 1219 c-129 -21 -257 -117 -311 -232 -77 -165 -56 -297 80 -517
78 -126 281 -408 298 -415 23 -8 32 3 151 169 262 364 322 496 294 648 -32
170 -154 298 -329 343 -63 16 -100 17 -183 4z m224 -130 c71 -33 122 -84 158
-157 30 -60 33 -75 32 -152 -1 -103 -22 -157 -89 -229 -66 -71 -147 -105 -250
-106 -68 0 -89 4 -137 28 -72 35 -134 97 -167 167 -22 46 -26 69 -26 145 0 78
4 97 28 146 30 63 93 126 156 158 82 42 206 42 295 0z"/>
<path d="M384 927 c-2 -7 -3 -75 -2 -152 2 -100 6 -140 16 -143 8 -2 12 9 12
37 l0 41 230 0 230 0 0 -40 c0 -29 4 -40 15 -40 13 0 15 15 13 95 -3 93 -20
135 -26 64 l-3 -36 -172 -6 c-95 -4 -198 -7 -229 -7 l-58 0 0 100 c0 62 -4
100 -10 100 -6 0 -13 -6 -16 -13z"/>
<path d="M452 858 c-27 -27 -7 -78 29 -78 21 0 49 26 49 45 0 35 -53 58 -78
33z"/>
<path d="M570 825 l0 -45 130 0 130 0 0 35 c0 48 -19 55 -149 55 l-111 0 0
-45z"/>
</g>
</svg>
