<svg width="16" height="16" viewBox="0 0 16 16" fill="none" xmlns="http://www.w3.org/2000/svg">
<path d="M4.0625 1.25V2.9375M11.9375 1.25V2.9375M1.25 13.0625V4.625C1.25 4.17745 1.42779 3.74823 1.74426 3.43176C2.06072 3.11529 2.48995 2.9375 2.9375 2.9375H13.0625C13.5101 2.9375 13.9393 3.11529 14.2557 3.43176C14.5722 3.74823 14.75 4.17745 14.75 4.625V13.0625M1.25 13.0625C1.25 13.5101 1.42779 13.9393 1.74426 14.2557C2.06072 14.5722 2.48995 14.75 2.9375 14.75H13.0625C13.5101 14.75 13.9393 14.5722 14.2557 14.2557C14.5722 13.9393 14.75 13.5101 14.75 13.0625M1.25 13.0625V7.4375C1.25 6.98995 1.42779 6.56073 1.74426 6.24426C2.06072 5.92779 2.48995 5.75 2.9375 5.75H13.0625C13.5101 5.75 13.9393 5.92779 14.2557 6.24426C14.5722 6.56073 14.75 6.98995 14.75 7.4375V13.0625M8 8.5625H8.006V8.5685H8V8.5625ZM8 10.25H8.006V10.256H8V10.25ZM8 11.9375H8.006V11.9435H8V11.9375ZM6.3125 10.25H6.3185V10.256H6.3125V10.25ZM6.3125 11.9375H6.3185V11.9435H6.3125V11.9375ZM4.625 10.25H4.631V10.256H4.625V10.25ZM4.625 11.9375H4.631V11.9435H4.625V11.9375ZM9.6875 8.5625H9.6935V8.5685H9.6875V8.5625ZM9.6875 10.25H9.6935V10.256H9.6875V10.25ZM9.6875 11.9375H9.6935V11.9435H9.6875V11.9375ZM11.375 8.5625H11.381V8.5685H11.375V8.5625ZM11.375 10.25H11.381V10.256H11.375V10.25Z" stroke="#6B7280" stroke-width="1.5" stroke-linecap="round" stroke-linejoin="round"/>
</svg>
